{
  "accessors": [
    {
      "bufferView": 2,
      "componentType": 5126,
      "count": 300,
      "max": [
        2.099306106567383,
        1.3015930652618408,
        2.0993032455444336
      ],
      "min": [
        -2.09930419921875,
        -0.7756600379943848,
        -2.099307060241699
      ],
      "type": "VEC3"
    },
    {
      "bufferView": 2,
      "byteOffset": 3600,
      "componentType": 5126,
      "count": 300,
      "max": [
        0.7815168499946594,
        0.750300407409668,
        0.9228013753890991
      ],
      "min": [
        -0.922796368598938,
        -0.731391966342926,
        -0.9578802585601807
      ],
      "type": "VEC3"
    },
    {
      "bufferView": 1,
      "componentType": 5126,
      "count": 300,
      "max": [
        1.003718614578247,
        1.011207103729248
      ],
      "min": [
        -0.001599729061126709,
        0.011207103729248047
      ],
      "type": "VEC2"
    },
    {
      "bufferView": 0,
      "componentType": 5125,
      "count": 792,
      "type": "SCALAR"
    },
    {
      "bufferView": 2,
      "byteOffset": 7200,
      "componentType": 5126,
      "count": 1650,
      "max": [
        3.428145170211792,
        2.4562299251556396,
        3.435671329498291
      ],
      "min": [
        -3.4150712490081787,
        0.8775987029075623,
        -3.394127368927002
      ],
      "type": "VEC3"
    },
    {
      "bufferView": 2,
      "byteOffset": 27000,
      "componentType": 5126,
      "count": 1650,
      "max": [
        0.9979051947593689,
        0.9762131571769714,
        0.9988917708396912
      ],
      "min": [
        -0.9978585839271545,
        -0.9997217655181885,
        -0.9989994168281555
      ],
      "type": "VEC3"
    },
    {
      "bufferView": 1,
      "byteOffset": 2400,
      "componentType": 5126,
      "count": 1650,
      "max": [
        1.0,
        1.0
      ],
      "min": [
        0.0,
        0.0
      ],
      "type": "VEC2"
    },
    {
      "bufferView": 0,
      "byteOffset": 3168,
      "componentType": 5125,
      "count": 2124,
      "type": "SCALAR"
    },
    {
      "bufferView": 2,
      "byteOffset": 46800,
      "componentType": 5126,
      "count": 234,
      "max": [
        2.558469533920288,
        1.072511911392212,
        2.733022928237915
      ],
      "min": [
        -2.7765157222747803,
        -0.8469752073287964,
        -2.7000396251678467
      ],
      "type": "VEC3"
    },
    {
      "bufferView": 2,
      "byteOffset": 49608,
      "componentType": 5126,
      "count": 234,
      "max": [
        0.9956855177879333,
        1.0,
        0.9999747276306152
      ],
      "min": [
        -0.9981679916381836,
        -1.0,
        -0.9999576807022095
      ],
      "type": "VEC3"
    },
    {
      "bufferView": 3,
      "componentType": 5126,
      "count": 234,
      "max": [
        0.9999991059303284,
        0.9765027761459351,
        0.9981923699378967,
        1.0
      ],
      "min": [
        -0.9999748468399048,
        -0.9668781757354736,
        -0.9994960427284241,
        -1.0
      ],
      "type": "VEC4"
    },
    {
      "bufferView": 1,
      "byteOffset": 15600,
      "componentType": 5126,
      "count": 234,
      "max": [
        0.9747645258903503,
        1.0
      ],
      "min": [
        0.025491882115602493,
        0.0
      ],
      "type": "VEC2"
    },
    {
      "bufferView": 1,
      "byteOffset": 17472,
      "componentType": 5126,
      "count": 234,
      "max": [
        0.9747645258903503,
        1.0
      ],
      "min": [
        0.025491882115602493,
        0.0
      ],
      "type": "VEC2"
    },
    {
      "bufferView": 1,
      "byteOffset": 19344,
      "componentType": 5126,
      "count": 234,
      "max": [
        0.9747645258903503,
        1.0
      ],
      "min": [
        0.025491882115602493,
        0.0
      ],
      "type": "VEC2"
    },
    {
      "bufferView": 1,
      "byteOffset": 21216,
      "componentType": 5126,
      "count": 234,
      "max": [
        0.9747645258903503,
        1.0
      ],
      "min": [
        0.025491882115602493,
        0.0
      ],
      "type": "VEC2"
    },
    {
      "bufferView": 0,
      "byteOffset": 11664,
      "componentType": 5125,
      "count": 294,
      "type": "SCALAR"
    }
  ],
  "asset": {
    "extras": {
      "author": "Aziz.Sisi.Akafomo (https://sketchfab.com/Aziz.Sisi.Akafomo)",
      "license": "CC-BY-4.0 (http://creativecommons.org/licenses/by/4.0/)",
      "source": "https://sketchfab.com/3d-models/hut-african-a8163e0d0c7f4174a87484d1b655bf62",
      "title": "Hut African"
    },
    "generator": "Sketchfab-16.59.0",
    "version": "2.0"
  },
  "bufferViews": [
    {
      "buffer": 0,
      "byteLength": 12840,
      "name": "floatBufferViews",
      "target": 34963
    },
    {
      "buffer": 0,
      "byteLength": 23088,
      "byteOffset": 12840,
      "byteStride": 8,
      "name": "floatBufferViews",
      "target": 34962
    },
    {
      "buffer": 0,
      "byteLength": 52416,
      "byteOffset": 35928,
      "byteStride": 12,
      "name": "floatBufferViews",
      "target": 34962
    },
    {
      "buffer": 0,
      "byteLength": 3744,
      "byteOffset": 88344,
      "byteStride": 16,
      "name": "floatBufferViews",
      "target": 34962
    }
  ],
  "buffers": [
    {
      "byteLength": 92088,
      "uri": "scene.bin"
    }
  ],
  "extensionsUsed": [
    "KHR_texture_transform",
    "KHR_materials_specular"
  ],
  "images": [
    {
      "uri": "textures/cracked_red_ground_baseColor.jpeg"
    },
    {
      "uri": "textures/cracked_red_ground_specularf0.png"
    },
    {
      "uri": "textures/pngfind.com-roof-png-1091585.png_baseColor.png"
    },
    {
      "uri": "textures/Checker_baseColor.png"
    },
    {
      "uri": "textures/Checker_metallicRoughness.png"
    },
    {
      "uri": "textures/Checker_normal.png"
    }
  ],
  "materials": [
    {
      "doubleSided": true,
      "extensions": {
        "KHR_materials_specular": {
          "specularColorFactor": [
            1.0,
            1.0,
            1.0
          ],
          "specularFactor": 1.0,
          "specularTexture": {
            "index": 1
          }
        }
      },
      "name": "cracked_red_ground",
      "pbrMetallicRoughness": {
        "baseColorTexture": {
          "extensions": {
            "KHR_texture_transform": {
              "offset": [
                0,
                -3
              ],
              "scale": [
                8,
                4
              ]
            }
          },
          "index": 0
        },
        "metallicFactor": 0.0,
        "roughnessFactor": 0.5
      }
    },
    {
      "alphaMode": "MASK",
      "doubleSided": true,
      "name": "pngfind.com-roof-png-1091585.png",
      "pbrMetallicRoughness": {
        "baseColorTexture": {
          "index": 2
        },
        "metallicFactor": 0.0
      }
    },
    {
      "doubleSided": true,
      "name": "Checker",
      "normalTexture": {
        "index": 5
      },
      "pbrMetallicRoughness": {
        "baseColorTexture": {
          "index": 3
        },
        "metallicRoughnessTexture": {
          "index": 4
        }
      }
    }
  ],
  "meshes": [
    {
      "name": "Object_0",
      "primitives": [
        {
          "attributes": {
            "NORMAL": 1,
            "POSITION": 0,
            "TEXCOORD_0": 2
          },
          "indices": 3,
          "material": 0,
          "mode": 4
        }
      ]
    },
    {
      "name": "Object_1",
      "primitives": [
        {
          "attributes": {
            "NORMAL": 5,
            "POSITION": 4,
            "TEXCOORD_0": 6
          },
          "indices": 7,
          "material": 1,
          "mode": 4
        }
      ]
    },
    {
      "name": "Object_2",
      "primitives": [
        {
          "attributes": {
            "NORMAL": 9,
            "POSITION": 8,
            "TANGENT": 10,
            "TEXCOORD_0": 11,
            "TEXCOORD_1": 12,
            "TEXCOORD_2": 13,
            "TEXCOORD_3": 14
          },
          "indices": 15,
          "material": 2,
          "mode": 4
        }
      ]
    }
  ],
  "nodes": [
    {
      "children": [
        1
      ],
      "matrix": [
        1.0,
        0.0,
        0.0,
        0.0,
        0.0,
        2.220446049250313e-16,
        -1.0,
        0.0,
        0.0,
        1.0,
        2.220446049250313e-16,
        0.0,
        0.0,
        0.0,
        0.0,
        1.0
      ],
      "name": "Sketchfab_model"
    },
    {
      "children": [
        2
      ],
      "name": "root"
    },
    {
      "children": [
        3
      ],
      "matrix": [
        1.0,
        0.0,
        0.0,
        0.0,
        0.0,
        2.220446049250313e-16,
        1.0,
        0.0,
        0.0,
        -1.0,
        2.220446049250313e-16,
        0.0,
        0.0,
        0.0,
        0.0,
        1.0
      ],
      "name": "GLTF_SceneRootNode"
    },
    {
      "children": [
        4,
        5,
        6
      ],
      "matrix": [
        0.0826423317193985,
        0.0,
        0.0,
        0.0,
        0.0,
        0.07909941673278809,
        0.0,
        0.0,
        0.0,
        0.0,
        0.08377890288829803,
        0.0,
        0.0,
        0.0,
        0.0,
        1.0
      ],
      "name": "HUt_0"
    },
    {
      "mesh": 0,
      "name": "Object_4"
    },
    {
      "mesh": 1,
      "name": "Object_5"
    },
    {
      "mesh": 2,
      "name": "Object_6"
    }
  ],
  "samplers": [
    {
      "magFilter": 9729,
      "minFilter": 9987,
      "wrapS": 10497,
      "wrapT": 10497
    }
  ],
  "scene": 0,
  "scenes": [
    {
      "name": "Sketchfab_Scene",
      "nodes": [
        0
      ]
    }
  ],
  "textures": [
    {
      "sampler": 0,
      "source": 0
    },
    {
      "sampler": 0,
      "source": 1
    },
    {
      "sampler": 0,
      "source": 2
    },
    {
      "sampler": 0,
      "source": 3
    },
    {
      "sampler": 0,
      "source": 4
    },
    {
      "sampler": 0,
      "source": 5
    }
  ]
}
